<?xml version="1.0" standalone="no"?>
<!DOCTYPE svg PUBLIC "-//W3C//DTD SVG 20010904//EN"
 "http://www.w3.org/TR/2001/REC-SVG-20010904/DTD/svg10.dtd">
<svg version="1.0" xmlns="http://www.w3.org/2000/svg"
 width="919.000000pt" height="691.000000pt" viewBox="0 0 919.000000 691.000000"
 preserveAspectRatio="xMidYMid meet">

<g transform="translate(0.000000,691.000000) scale(0.100000,-0.100000)"
fill="#000000" stroke="none">
<path d="M4559 5591 c-15 -5 -51 -26 -80 -48 -30 -22 -213 -147 -406 -279
l-353 -239 0 -632 c0 -428 3 -633 10 -633 14 0 134 81 905 608 661 453 865
597 865 612 0 13 -56 54 -440 320 -201 139 -376 261 -390 271 -31 23 -76 31
-111 20z"/>
<path d="M5470 4658 c-216 -147 -609 -418 -654 -451 -7 -4 -2 -14 14 -27 40
-32 947 -663 1608 -1119 l322 -223 36 21 c61 36 848 582 872 605 l23 22 -23
21 c-13 11 -394 278 -848 593 -454 315 -878 610 -942 656 -64 46 -122 84 -130
84 -7 -1 -132 -82 -278 -182z"/>
<path d="M3400 4795 c-41 -26 -720 -477 -735 -487 -18 -13 31 -51 405 -317
244 -174 367 -256 372 -248 9 15 9 964 0 1028 l-7 46 -35 -22z"/>
<path d="M2302 4053 c-353 -240 -801 -559 -798 -568 3 -12 109 -86 1126 -783
l815 -560 125 86 c202 138 701 492 749 530 l44 35 -34 28 c-48 40 -709 502
-1795 1256 -51 34 -94 63 -98 63 -3 0 -64 -39 -134 -87z"/>
<path d="M5746 3203 c-8 -49 -6 -846 3 -976 l6 -99 75 49 c85 56 667 477 690
499 13 13 12 17 -10 35 -37 29 -695 491 -729 512 l-28 17 -7 -37z"/>
<path d="M5401 3178 c-29 -22 -335 -234 -680 -471 -618 -424 -1012 -696 -1020
-704 -10 -8 48 -54 224 -180 257 -184 605 -426 641 -448 39 -22 -17 -54 507
292 l397 262 0 640 c0 352 -3 642 -7 644 -5 3 -32 -13 -62 -35z"/>
</g>
</svg>
